<svg width="16" height="16" viewBox="0 0 16 16" fill="none" xmlns="http://www.w3.org/2000/svg">
<g id="delete (2) 1">
<g id="Group">
<path id="Vector" d="M11.6964 5.57572L9.27243 7.99992L11.6964 10.424C12.0569 10.7847 12.0569 11.369 11.6964 11.7297C11.5162 11.9098 11.28 12 11.044 12C10.8075 12 10.5713 11.91 10.3913 11.7297L7.96681 9.30529L5.54251 11.7296C5.36238 11.9098 5.12617 11.9999 4.8899 11.9999C4.65368 11.9999 4.41763 11.9099 4.23735 11.7296C3.8768 11.3691 3.8768 10.7848 4.23735 10.424L6.66123 7.9999L4.23721 5.57572C3.87666 5.21516 3.87666 4.63076 4.23721 4.27021C4.59769 3.90993 5.18175 3.90993 5.54237 4.27021L7.96679 6.69442L10.391 4.27021C10.7517 3.90993 11.3358 3.90993 11.6962 4.27021C12.0569 4.63076 12.0569 5.21516 11.6964 5.57572Z" fill="#858FA4"/>
</g>
</g>
</svg>
