<svg width="22" height="20" viewBox="0 0 22 20" fill="none" xmlns="http://www.w3.org/2000/svg">
<g id="search" clip-path="url(#clip0_921_9715)">
<path id="Vector" d="M12.9471 17.605C11.0494 17.6046 9.20642 16.9694 7.71158 15.8004L3.01173 20.5L1.5 18.9883L6.19984 14.2888C5.03023 12.7938 4.39456 10.9505 4.3941 9.05249C4.3941 4.33686 8.23117 0.5 12.9471 0.5C17.6629 0.5 21.5 4.33686 21.5 9.05249C21.5 13.7681 17.6629 17.605 12.9471 17.605ZM12.9471 2.63812C9.40934 2.63812 6.53234 5.51497 6.53234 9.05249C6.53234 12.59 9.40934 15.4669 12.9471 15.4669C16.4848 15.4669 19.3618 12.59 19.3618 9.05249C19.3618 5.51497 16.4848 2.63812 12.9471 2.63812Z" fill="#858FA4" fill-opacity="0.7"/>
</g>
<defs>
<clipPath id="clip0_921_9715">
<rect width="21.4276" height="20" fill="white" transform="translate(0.5)"/>
</clipPath>
</defs>
</svg>
