<svg width="46" height="30" viewBox="0 0 46 30" fill="none" xmlns="http://www.w3.org/2000/svg">
<g id="symbols 1">
<g id="Group 769">
<g id="Group">
<g id="Group_2">
<path id="Vector" d="M17.5152 8.29468L15.584 19.6279H18.6727L20.6055 8.29468H17.5152Z" fill="#3665C8"/>
</g>
</g>
<g id="Group_3">
<g id="Group_4">
<path id="Vector_2" d="M12.9946 8.30744L9.96946 16.0364L9.64692 14.8694C9.05031 13.4632 7.3566 11.4438 5.36816 10.1711L8.13434 19.6224L11.4026 19.6168L16.2668 8.30505L12.9946 8.30744Z" fill="#3665C8"/>
</g>
</g>
<g id="Group_5">
<g id="Group_6">
<path id="Vector_3" d="M8.47405 9.11861C8.29452 8.42826 7.77417 8.2225 7.1283 8.19788H2.33953L2.2998 8.42349C6.02644 9.32754 8.49233 11.5058 9.51554 14.1251L8.47405 9.11861Z" fill="#3665C8"/>
</g>
</g>
<g id="Group_7">
<g id="Group_8">
<path id="Vector_4" d="M26.8665 10.4675C27.877 10.4516 28.6095 10.6724 29.1783 10.9012L29.4571 11.0323L29.875 8.57596C29.2633 8.34637 28.3044 8.1001 27.108 8.1001C24.0558 8.1001 21.9045 9.6373 21.8878 11.8402C21.868 13.468 23.4203 14.3768 24.5929 14.9194C25.7964 15.4755 26.2 15.829 26.1944 16.3255C26.1849 17.0842 25.2348 17.4322 24.3474 17.4322C23.1105 17.4322 22.4535 17.2614 21.439 16.8387L21.041 16.6576L20.6064 19.1942C21.3294 19.5112 22.6632 19.7837 24.0479 19.798C27.2947 19.798 29.4047 18.279 29.4269 15.9252C29.4404 14.6374 28.6166 13.6547 26.8315 12.8484C25.7511 12.3225 25.0902 11.9729 25.0965 11.4422C25.0965 10.9711 25.6574 10.4675 26.8665 10.4675Z" fill="#3665C8"/>
</g>
</g>
<g id="Group_9">
<g id="Group_10">
<path id="Vector_5" d="M37.8008 8.3075H35.4144C34.6732 8.3075 34.1219 8.50928 33.7962 9.24809L29.21 19.6344H32.4536C32.4536 19.6344 32.9827 18.2378 33.1026 17.9319C33.4577 17.9319 36.6092 17.9367 37.0581 17.9367C37.1502 18.3323 37.4346 19.6344 37.4346 19.6344H40.3001L37.8008 8.3075ZM33.9916 15.6122C34.2458 14.9616 35.2221 12.4448 35.2221 12.4448C35.2055 12.4758 35.474 11.7894 35.6337 11.3628L35.8418 12.34C35.8418 12.34 36.4336 15.0458 36.5576 15.6122H33.9916Z" fill="#3665C8"/>
</g>
</g>
</g>
</g>
</svg>
