<svg width="54" height="30" viewBox="0 0 54 30" fill="none" xmlns="http://www.w3.org/2000/svg">
<g id="Frame 1082">
<path id="Vector" fill-rule="evenodd" clip-rule="evenodd" d="M16.2878 17.2786C15.8285 17.2798 15.3791 17.1481 14.9966 16.9002C14.6141 16.6524 14.3156 16.2995 14.139 15.8863C13.9624 15.4731 13.9156 15.0181 14.0044 14.5789C14.0933 14.1397 14.3139 13.7361 14.6383 13.4191C14.9627 13.1022 15.3762 12.8862 15.8267 12.7984C16.277 12.7106 16.7441 12.7551 17.1686 12.9261C17.5931 13.0971 17.9561 13.3871 18.2114 13.7592C18.4666 14.1313 18.603 14.5689 18.603 15.0165C18.6035 15.6156 18.3598 16.1903 17.9256 16.6144C17.4916 17.0385 16.9026 17.2774 16.2878 17.2786ZM16.2878 10.35C15.4822 10.3482 14.6893 10.5446 13.9823 10.9208C13.2753 11.297 12.6771 11.8409 12.243 12.5023C11.809 13.1636 11.5532 13.921 11.4993 14.7043C11.4454 15.4875 11.5951 16.2714 11.9346 16.9833C12.2741 17.6952 12.7924 18.3121 13.4415 18.777C14.0907 19.2418 14.8496 19.5396 15.6482 19.6428C16.4467 19.7458 17.2591 19.651 18.0102 19.3669C18.7611 19.0828 19.4263 18.6187 19.9443 18.0175C19.628 18.5906 19.1706 19.071 18.6409 19.3729V19.6138H21.0645V14.9923C21.0588 13.7606 20.5532 12.5812 19.6583 11.7114C18.7633 10.8417 17.5518 10.3523 16.2878 10.35ZM39.2708 17.3241H36.1184V15.8095H39.2111C39.5978 15.8095 40.049 16.1639 40.049 16.5668C40.049 16.8591 39.8145 17.3241 39.2708 17.3241ZM36.1184 12.7128L38.7661 12.7117C39.053 12.7117 39.527 13.0005 39.527 13.4624C39.527 13.831 39.2202 14.2275 38.6865 14.2275H36.1184V12.7128ZM41.4244 14.7374C41.9992 13.8857 42.0521 12.7219 41.5269 11.8512C41.2668 11.4205 40.8966 11.0629 40.4524 10.8132C40.0081 10.5635 39.505 10.4304 38.9923 10.4266L33.6947 10.4261V19.6138L39.6223 19.6101C41.4818 19.6101 42.5196 18.1146 42.5196 16.8597C42.5196 15.6523 41.8149 15.0466 41.4244 14.7371V14.7374ZM31.2977 13.8118C32.0932 15.9033 32.1338 17.8009 32.1338 19.6139H29.6733C29.6733 18.1433 29.6204 16.8042 29.3045 15.5936C28.8812 13.9709 28.0929 12.7912 27.3604 12.7911C26.6279 12.7911 25.8391 13.9709 25.4157 15.5936C25.0998 16.8042 25.0476 18.1084 25.0476 19.6139H22.5871C22.5871 17.9639 22.627 15.9033 23.4226 13.8118C24.164 11.8632 25.5494 10.3501 27.3604 10.3501C29.1714 10.3501 30.5562 11.8632 31.2977 13.8118ZM8.09243 10.426H10.5535V11.3938C10.5542 12.0886 10.3956 12.7748 10.0892 13.4023C9.7828 14.0297 9.33641 14.5824 8.78261 15.0201C9.33641 15.4578 9.7828 16.0106 10.0892 16.638C10.3956 17.2654 10.5542 17.9516 10.5535 18.6464V19.6143H8.09243V18.4041C8.09243 17.8056 7.84849 17.2317 7.41427 16.8085C6.98004 16.3854 6.39111 16.1476 5.77703 16.1476C5.16295 16.1476 4.57402 16.3854 4.13979 16.8085C3.70558 17.2317 3.46162 17.8056 3.46162 18.4041V19.6138H1V18.646C0.999389 17.9511 1.15813 17.2649 1.46462 16.6375C1.7711 16.0101 2.2176 15.4573 2.77144 15.0197C2.21757 14.582 1.77107 14.0293 1.46459 13.4019C1.15809 12.7745 0.999366 12.0882 1 11.3934V10.4258H3.46162V11.6356C3.46162 12.234 3.70558 12.808 4.13979 13.2311C4.57402 13.6543 5.16295 13.892 5.77703 13.892C6.39111 13.892 6.98004 13.6543 7.41427 13.2311C7.84849 12.808 8.09243 12.234 8.09243 11.6356V10.426ZM48.2231 17.2787C47.7638 17.2799 47.3144 17.1482 46.932 16.9004C46.5495 16.6526 46.251 16.2997 46.0744 15.8864C45.8979 15.4732 45.851 15.0182 45.9399 14.579C46.0287 14.1399 46.2493 13.7362 46.5737 13.4193C46.898 13.1023 47.3116 12.8863 47.7621 12.7985C48.2126 12.7108 48.6795 12.7552 49.1041 12.9263C49.5286 13.0973 49.8914 13.3872 50.1467 13.7594C50.4021 14.1315 50.5383 14.5691 50.5383 15.0167C50.5389 15.6158 50.2953 16.1905 49.8612 16.6147C49.4271 17.0388 48.8379 17.2777 48.2231 17.2787ZM52.9994 14.9925C52.9928 13.8973 52.5909 12.8393 51.8641 12.004C51.1373 11.1686 50.132 10.6092 49.0244 10.4237C47.9169 10.2383 46.7775 10.4387 45.8063 10.9897C44.8351 11.5408 44.0939 12.4074 43.7127 13.4376C43.3313 14.4678 43.3343 15.596 43.7209 16.6243C44.1075 17.6527 44.8532 18.5156 45.8273 19.0618C46.8014 19.6081 47.9416 19.8028 49.0483 19.6119C50.1549 19.421 51.1573 18.8566 51.8798 18.0177C51.5633 18.5908 51.106 19.0712 50.5762 19.3731V19.6139H53V14.9923L52.9994 14.9925Z" fill="#FF4B5F"/>
</g>
</svg>
