<svg width="46" height="30" viewBox="0 0 46 30" fill="none" xmlns="http://www.w3.org/2000/svg">
<g id="symbols 3">
<g id="Group 770">
<g id="g5">
<path id="path7" fill-rule="evenodd" clip-rule="evenodd" d="M12.5397 9.25V9.25474C12.535 9.25474 11.0554 9.25 10.6608 10.6771C10.2991 11.9856 9.27983 15.5984 9.25165 15.698H8.96981C8.96981 15.698 7.92704 12.0046 7.56066 10.6723C7.16609 9.24526 5.68178 9.25 5.68178 9.25H2.2998V20.1072H5.68178V13.6593H5.8227H5.96361L7.93643 20.1072H10.285L12.2578 13.664H12.5397V20.1072H15.9217V9.25H12.5397Z" fill="#4DB45E"/>
</g>
<g id="g9">
<path id="path11" fill-rule="evenodd" clip-rule="evenodd" d="M24.8934 9.25C24.8934 9.25 23.9023 9.34008 23.4373 10.3879L21.0417 15.698H20.7599V9.25H17.3779V20.1072H20.572C20.572 20.1072 21.6101 20.0124 22.0751 18.9693L24.4237 13.6593H24.7055V20.1072H28.0875V9.25H24.8934Z" fill="#4DB45E"/>
</g>
<g id="g13">
<path id="path15" fill-rule="evenodd" clip-rule="evenodd" d="M29.5898 14.1807V20.1071H32.9718V16.6461H36.6356C38.2327 16.6461 39.5855 15.6172 40.0881 14.1807H29.5898Z" fill="#4DB45E"/>
</g>
<g id="g17">
<path id="path24" fill-rule="evenodd" clip-rule="evenodd" d="M36.6364 9.25H29.1162C29.492 11.3171 31.028 12.9765 33.0149 13.517C33.4658 13.6403 33.9402 13.7067 34.4287 13.7067H40.2251C40.2767 13.4601 40.3002 13.2089 40.3002 12.9481C40.3002 10.9047 38.6609 9.25 36.6364 9.25Z" fill="url(#paint0_linear_3474_63882)"/>
</g>
</g>
</g>
<defs>
<linearGradient id="paint0_linear_3474_63882" x1="29.1171" y1="11.4783" x2="40.3002" y2="11.4783" gradientUnits="userSpaceOnUse">
<stop offset="0.3" stop-color="#00B4E6"/>
<stop offset="1" stop-color="#088CCB"/>
</linearGradient>
</defs>
</svg>
