<svg width="28" height="22" viewBox="0 0 28 22" fill="none" xmlns="http://www.w3.org/2000/svg">
<g id="Group">
<path id="Vector" fill-rule="evenodd" clip-rule="evenodd" d="M27.4452 21.2235V21.2786H27.4974C27.5072 21.2787 27.5169 21.2763 27.5254 21.2716C27.5323 21.2668 27.5363 21.2588 27.5358 21.2505C27.5362 21.2423 27.5323 21.2345 27.5254 21.2299C27.517 21.2249 27.5072 21.2225 27.4974 21.2229H27.4452V21.2235ZM27.4979 21.1844C27.5203 21.1831 27.5425 21.1894 27.5606 21.2024C27.5754 21.2143 27.5836 21.2324 27.5827 21.2512C27.5833 21.2673 27.5769 21.283 27.565 21.294C27.551 21.306 27.5334 21.3133 27.5149 21.3146L27.5848 21.3932H27.5309L27.4666 21.3151H27.4457V21.3932H27.4006V21.1846H27.4986L27.4979 21.1844ZM27.4839 21.4652C27.5076 21.4655 27.531 21.4607 27.5527 21.4514C27.5736 21.4426 27.5926 21.4299 27.6087 21.4141C27.6248 21.3982 27.6377 21.3795 27.6466 21.3589C27.665 21.3151 27.665 21.266 27.6466 21.2223C27.6376 21.2017 27.6247 21.1831 27.6087 21.1671C27.5926 21.1513 27.5736 21.1386 27.5527 21.1297C27.5308 21.121 27.5075 21.1165 27.4839 21.1168C27.46 21.1166 27.4362 21.121 27.4139 21.1297C27.3926 21.1384 27.3731 21.1511 27.3567 21.1671C27.3061 21.2182 27.2914 21.2945 27.3193 21.3603C27.3278 21.381 27.3405 21.3998 27.3567 21.4155C27.3732 21.4314 27.3926 21.4441 27.4139 21.4529C27.4361 21.4622 27.4599 21.4668 27.4839 21.4667V21.4652ZM27.4839 21.0666C27.5455 21.0665 27.6045 21.0903 27.6485 21.1328C27.6696 21.1532 27.6864 21.1775 27.698 21.2044C27.7222 21.2601 27.7222 21.3232 27.698 21.3789C27.6861 21.4056 27.6693 21.4299 27.6485 21.4505C27.627 21.4708 27.602 21.4871 27.5747 21.4988C27.546 21.5107 27.5151 21.5169 27.4839 21.5167C27.4524 21.5169 27.4212 21.5108 27.3921 21.4988C27.3645 21.4874 27.3393 21.471 27.3177 21.4505C27.2969 21.4292 27.2803 21.404 27.2689 21.3766C27.2448 21.3209 27.2448 21.2577 27.2689 21.202C27.2804 21.1752 27.2973 21.1509 27.3185 21.1305C27.3397 21.1095 27.3649 21.0932 27.3928 21.0822C27.4218 21.0701 27.4532 21.064 27.4846 21.0643L27.4839 21.0666ZM6.04992 20.2605C6.04992 19.8626 6.31456 19.5357 6.74692 19.5357C7.16012 19.5357 7.43901 19.8485 7.43901 20.2605C7.43901 20.6726 7.16012 20.9855 6.74692 20.9855C6.31456 20.9855 6.04992 20.6585 6.04992 20.2605ZM7.91003 20.2605V19.128H7.41042V19.4039C7.25197 19.2 7.01165 19.0722 6.68475 19.0722C6.04084 19.0722 5.53552 19.5699 5.53552 20.2612C5.53552 20.9524 6.04057 21.4501 6.68475 21.4501C7.01147 21.4501 7.25197 21.322 7.41042 21.1183V21.3932H7.90948V20.2605H7.91003ZM24.7907 20.2605C24.7907 19.8626 25.0552 19.5357 25.4878 19.5357C25.9014 19.5357 26.1799 19.8485 26.1799 20.2605C26.1799 20.6726 25.9014 20.9855 25.4878 20.9855C25.0554 20.9855 24.7907 20.6585 24.7907 20.2605ZM26.6513 20.2605V18.219H26.1513V19.4039C25.9928 19.2 25.7525 19.0722 25.4257 19.0722C24.7817 19.0722 24.2764 19.5699 24.2764 20.2612C24.2764 20.9524 24.7814 21.4501 25.4257 21.4501C25.7525 21.4501 25.9928 21.322 26.1513 21.1183V21.3932H26.6513V20.2605ZM14.1107 19.5123C14.4326 19.5123 14.6394 19.7113 14.6921 20.0615H13.5001C13.5534 19.7346 13.7548 19.5123 14.1108 19.5123H14.1107ZM14.1207 19.071C13.4474 19.071 12.9764 19.5537 12.9764 20.2599C12.9764 20.9799 13.4663 21.4489 14.1542 21.4489C14.5002 21.4489 14.8172 21.3637 15.096 21.1315L14.8511 20.7667C14.6586 20.9184 14.4133 21.0036 14.1827 21.0036C13.8608 21.0036 13.5677 20.8566 13.4956 20.449H15.2015C15.2064 20.3878 15.2114 20.326 15.2114 20.2597C15.2064 19.5539 14.7636 19.0708 14.1205 19.0708L14.1207 19.071ZM20.1523 20.2597C20.1523 19.8617 20.4168 19.5349 20.8492 19.5349C21.2625 19.5349 21.5413 19.8477 21.5413 20.2597C21.5413 20.6718 21.2625 20.9847 20.8492 20.9847C20.4168 20.9847 20.1521 20.6577 20.1521 20.2597H20.1523ZM22.0122 20.2597V19.128H21.5129V19.4039C21.3539 19.2 21.1141 19.0722 20.7872 19.0722C20.1433 19.0722 19.638 19.5699 19.638 20.2612C19.638 20.9524 20.143 21.4501 20.7872 21.4501C21.1141 21.4501 21.3539 21.322 21.5129 21.1183V21.3932H22.0123V20.2605L22.0122 20.2597ZM17.3309 20.2597C17.3309 20.9466 17.8161 21.4487 18.5566 21.4487C18.9026 21.4487 19.1332 21.3728 19.3825 21.1788L19.1426 20.7808C18.955 20.9136 18.758 20.9847 18.5407 20.9847C18.1418 20.9799 17.8486 20.6956 17.8486 20.2597C17.8486 19.8238 18.1418 19.5398 18.5407 19.5349C18.7575 19.5349 18.9544 19.6059 19.1426 19.7387L19.3825 19.3408C19.1328 19.1466 18.9022 19.0708 18.5566 19.0708C17.8161 19.0708 17.3309 19.5728 17.3309 20.2597ZM23.7715 19.0708C23.4833 19.0708 23.2956 19.2036 23.1658 19.4026V19.128H22.6707V21.392H23.1708V20.1229C23.1708 19.7482 23.3342 19.54 23.6608 19.54C23.7677 19.5385 23.8739 19.5579 23.9732 19.597L24.1272 19.133C24.0166 19.0901 23.8724 19.0712 23.7712 19.0712L23.7715 19.0708ZM10.38 19.308C10.1397 19.1519 9.80844 19.0712 9.44315 19.0712C8.86105 19.0712 8.48632 19.3461 8.48632 19.796C8.48632 20.1651 8.7653 20.3929 9.27906 20.4639L9.51503 20.497C9.78901 20.5349 9.91834 20.606 9.91834 20.7338C9.91834 20.9089 9.73638 21.0088 9.39469 21.0088C9.04864 21.0088 8.79888 20.8998 8.63053 20.7719L8.39575 21.1559C8.66974 21.3548 9.01578 21.4497 9.39051 21.4497C10.054 21.4497 10.4385 21.1417 10.4385 20.7107C10.4385 20.3127 10.1359 20.1046 9.63591 20.0335L9.4004 19.9998C9.18413 19.9723 9.01088 19.9294 9.01088 19.7776C9.01088 19.6121 9.17424 19.5125 9.44832 19.5125C9.74155 19.5125 10.0254 19.6214 10.1646 19.7066L10.3808 19.3086L10.38 19.308ZM16.8263 19.0716C16.5381 19.0716 16.3504 19.2045 16.2212 19.4034V19.128H15.726V21.392H16.2256V20.1229C16.2256 19.7482 16.389 19.54 16.7156 19.54C16.8225 19.5385 16.9287 19.5579 17.028 19.597L17.182 19.133C17.0714 19.0901 16.9272 19.0712 16.826 19.0712L16.8263 19.0716ZM12.563 19.128H11.746V18.4412H11.241V19.128H10.7751V19.578H11.241V20.6108C11.241 21.1361 11.4479 21.4489 12.0389 21.4489C12.2557 21.4489 12.5055 21.3828 12.6639 21.2739L12.5196 20.8523C12.3705 20.9375 12.2072 20.9804 12.0773 20.9804C11.8275 20.9804 11.746 20.8286 11.746 20.6015V19.5784H12.563V19.128ZM5.09373 21.3926V19.9717C5.09373 19.4367 4.74768 19.0766 4.1899 19.0718C3.89658 19.0669 3.5941 19.1569 3.38236 19.4746C3.22391 19.2235 2.97415 19.0718 2.62311 19.0718C2.37771 19.0718 2.13794 19.1428 1.95016 19.4079V19.128H1.4502V21.392H1.95407V20.1367C1.95407 19.7437 2.17524 19.5349 2.51684 19.5349C2.84854 19.5349 3.01644 19.748 3.01644 20.1317V21.3917H3.52149V20.1364C3.52149 19.7434 3.75201 19.5346 4.08363 19.5346C4.42477 19.5346 4.58759 19.7477 4.58759 20.1315V21.3914L5.09373 21.3926Z" fill="#231F20"/>
<path id="Vector_2" fill-rule="evenodd" clip-rule="evenodd" d="M27.7302 13.8615V13.5304H27.6427L27.5415 13.7576L27.4409 13.5304H27.3531V13.8615H27.4152V13.6121L27.5098 13.8272H27.5743L27.6688 13.6115V13.8615H27.7305H27.7302ZM27.1751 13.8615V13.5871H27.2871V13.5312H27.001V13.5871H27.113V13.8615H27.1751Z" fill="#F79410"/>
<path id="Vector_3" fill-rule="evenodd" clip-rule="evenodd" d="M17.7859 15.2815H10.2148V1.87305H17.7861L17.7859 15.2815Z" fill="#FF5F00"/>
<path id="Vector_4" fill-rule="evenodd" clip-rule="evenodd" d="M10.6946 8.57753C10.6946 5.85763 11.987 3.43474 13.9993 1.87329C12.4763 0.689878 10.5916 0.0471964 8.65219 0.0500583C3.87359 0.0500583 0 3.86787 0 8.57753C0 13.2871 3.87359 17.1049 8.65219 17.1049C10.5916 17.1078 12.4764 16.4651 13.9995 15.2817C11.9873 13.7205 10.6946 11.2975 10.6946 8.57753Z" fill="#EB001B"/>
<path id="Vector_5" fill-rule="evenodd" clip-rule="evenodd" d="M28.0001 8.57753C28.0001 13.2871 24.1265 17.1049 19.348 17.1049C17.4083 17.1077 15.5233 16.4651 14 15.2817C16.0129 13.7202 17.3053 11.2975 17.3053 8.57753C17.3053 5.85745 16.0129 3.43473 14 1.87328C15.5232 0.689877 17.4082 0.0472853 19.3478 0.0500578C24.1264 0.0500578 28 3.86787 28 8.57753" fill="#F79410"/>
</g>
</svg>
